<svg xmlns="http://www.w3.org/2000/svg" xmlns:xlink="http://www.w3.org/1999/xlink" contentStyleType="text/css" data-diagram-type="DESCRIPTION" height="539px" preserveAspectRatio="none" style="width:352px;height:539px;background:#FFFFFF;" version="1.1" viewBox="0 0 352 539" width="352px" zoomAndPan="magnify"><?plantuml 1.2026.6?><defs/><g><!--cluster Biblioteca Online--><g class="cluster" data-qualified-name="Biblioteca Online" data-source-line="6" id="ent0003"><rect fill="none" height="518" rx="2.5" ry="2.5" style="stroke:#181818;stroke-width:1;" width="205.91" x="132.4" y="7"/><text fill="#000000" font-family="sans-serif" font-size="14" font-weight="700" lengthAdjust="spacing" textLength="119.1255" x="175.7922" y="23.9659">Biblioteca Online</text></g><!--entity UC1--><g class="entity" data-qualified-name="Biblioteca Online.UC1" data-source-line="7" id="ent0004"><ellipse cx="235.3464" cy="63.0033" fill="#F1F1F1" rx="76.6164" ry="17.7233" style="stroke:#181818;stroke-width:0.5;"/><text fill="#000000" font-family="sans-serif" font-size="14" lengthAdjust="spacing" textLength="112.1956" x="179.2486" y="69.0372">Consultar Acervo</text></g><!--entity UC2--><g class="entity" data-qualified-name="Biblioteca Online.UC2" data-source-line="8" id="ent0005"><ellipse cx="235.3538" cy="202.9988" fill="#F1F1F1" rx="85.8938" ry="19.5788" style="stroke:#181818;stroke-width:0.5;"/><text fill="#000000" font-family="sans-serif" font-size="14" lengthAdjust="spacing" textLength="135.6315" x="167.5381" y="209.0327">Realizar Emprestimo</text></g><!--entity UC3--><g class="entity" data-qualified-name="Biblioteca Online.UC3" data-source-line="9" id="ent0006"><ellipse cx="235.3472" cy="132.0031" fill="#F1F1F1" rx="69.2472" ry="16.4831" style="stroke:#181818;stroke-width:0.5;"/><text fill="#000000" font-family="sans-serif" font-size="14" lengthAdjust="spacing" textLength="93.6876" x="188.5033" y="138.037">Reservar Livro</text></g><!--entity UC4--><g class="entity" data-qualified-name="Biblioteca Online.UC4" data-source-line="10" id="ent0007"><ellipse cx="235.3508" cy="277.0002" fill="#F1F1F1" rx="86.9508" ry="19.7902" style="stroke:#181818;stroke-width:0.5;"/><text fill="#000000" font-family="sans-serif" font-size="14" lengthAdjust="spacing" textLength="138.2075" x="166.2471" y="283.0341">Renovar Emprestimo</text></g><!--entity UC5--><g class="entity" data-qualified-name="Biblioteca Online.UC5" data-source-line="11" id="ent0008"><ellipse cx="235.3497" cy="348.9979" fill="#F1F1F1" rx="72.1897" ry="16.8379" style="stroke:#181818;stroke-width:0.5;"/><text fill="#000000" font-family="sans-serif" font-size="14" lengthAdjust="spacing" textLength="100.2956" x="185.2019" y="355.0319">Cadastrar Livro</text></g><!--entity UC6--><g class="entity" data-qualified-name="Biblioteca Online.UC6" data-source-line="12" id="ent0009"><ellipse cx="235.3485" cy="489.9957" fill="#F1F1F1" rx="84.6785" ry="19.3357" style="stroke:#181818;stroke-width:0.5;"/><text fill="#000000" font-family="sans-serif" font-size="14" lengthAdjust="spacing" textLength="132.6495" x="169.0238" y="496.0297">Registrar Devolucao</text></g><!--entity UC7--><g class="entity" data-qualified-name="Biblioteca Online.UC7" data-source-line="13" id="ent0010"><ellipse cx="235.3522" cy="418.0044" fill="#F1F1F1" rx="74.7722" ry="17.3544" style="stroke:#181818;stroke-width:0.5;"/><text fill="#000000" font-family="sans-serif" font-size="14" lengthAdjust="spacing" textLength="107.3096" x="181.6974" y="424.0384">Gerar Relatorios</text></g><!--entity user--><g class="entity" data-qualified-name="user" data-source-line="3" id="ent0001"><ellipse cx="47.2049" cy="136.97" fill="#F1F1F1" rx="8" ry="8" style="stroke:#181818;stroke-width:0.5;"/><path d="M47.2049,144.97 L47.2049,171.97 M34.2049,152.97 L60.2049,152.97 M47.2049,171.97 L34.2049,186.97 M47.2049,171.97 L60.2049,186.97" fill="none" style="stroke:#181818;stroke-width:0.5;"/><text fill="#000000" font-family="sans-serif" font-size="14" lengthAdjust="spacing" textLength="51.3098" x="21.55" y="203.4359">Usuario</text></g><!--entity biblio--><g class="entity" data-qualified-name="biblio" data-source-line="4" id="ent0002"><ellipse cx="47.2018" cy="317.97" fill="#F1F1F1" rx="8" ry="8" style="stroke:#181818;stroke-width:0.5;"/><path d="M47.2018,325.97 L47.2018,352.97 M34.2018,333.97 L60.2018,333.97 M47.2018,352.97 L34.2018,367.97 M47.2018,352.97 L60.2018,367.97" fill="none" style="stroke:#181818;stroke-width:0.5;"/><text fill="#000000" font-family="sans-serif" font-size="14" lengthAdjust="spacing" textLength="82.4037" x="6" y="384.4359">Bibliotecario</text></g><!--link user to UC1--><g class="link" data-entity-1="ent0001" data-entity-2="ent0004" data-link-type="dependency" data-source-line="16" id="lnk11"><path d="M73.06,139.93 C86.95,125.68 105.29,109.09 124.4,98 C141.21,88.25 156.2777,82.2861 174.4577,76.8761" fill="none" id="user-to-UC1" style="stroke:#181818;stroke-width:1;"/><polygon fill="#181818" points="179.25,75.45,169.483,74.1831,174.4577,76.8761,171.7647,81.8508,179.25,75.45" style="stroke:#181818;stroke-width:1;stroke-linejoin:miter;stroke-miterlimit:10;"/></g><!--link user to UC2--><g class="link" data-entity-1="ent0001" data-entity-2="ent0005" data-link-type="dependency" data-source-line="17" id="lnk12"><path d="M73.31,172.72 C97.52,177.27 130.3162,183.4356 163.1662,189.6156" fill="none" id="user-to-UC2" style="stroke:#181818;stroke-width:1;"/><polygon fill="#181818" points="168.08,190.54,159.9747,184.945,163.1662,189.6156,158.4956,192.8071,168.08,190.54" style="stroke:#181818;stroke-width:1;stroke-linejoin:miter;stroke-miterlimit:10;"/></g><!--link user to UC3--><g class="link" data-entity-1="ent0001" data-entity-2="ent0006" data-link-type="dependency" data-source-line="18" id="lnk13"><path d="M73.31,163.14 C100.7,157.85 140.4511,150.1599 175.8011,143.3199" fill="none" id="user-to-UC3" style="stroke:#181818;stroke-width:1;"/><polygon fill="#181818" points="180.71,142.37,171.114,140.1526,175.8011,143.3199,172.6338,148.0069,180.71,142.37" style="stroke:#181818;stroke-width:1;stroke-linejoin:miter;stroke-miterlimit:10;"/></g><!--link user to UC4--><g class="link" data-entity-1="ent0001" data-entity-2="ent0007" data-link-type="dependency" data-source-line="19" id="lnk14"><path d="M73.33,197.13 C87.17,211.68 105.37,228.57 124.4,240 C139.94,249.33 153.3991,255.1214 170.4691,260.7214" fill="none" id="user-to-UC4" style="stroke:#181818;stroke-width:1;"/><polygon fill="#181818" points="175.22,262.28,167.9153,255.6739,170.4691,260.7214,165.4216,263.2753,175.22,262.28" style="stroke:#181818;stroke-width:1;stroke-linejoin:miter;stroke-miterlimit:10;"/></g><!--link biblio to UC5--><g class="link" data-entity-1="ent0002" data-entity-2="ent0008" data-link-type="dependency" data-source-line="21" id="lnk15"><path d="M88.59,349 C110.3,349 132.71,349 157.88,349" fill="none" id="biblio-to-UC5" style="stroke:#181818;stroke-width:1;"/><polygon fill="#181818" points="162.88,349,153.88,345,157.88,349,153.88,353,162.88,349" style="stroke:#181818;stroke-width:1;stroke-linejoin:miter;stroke-miterlimit:10;"/></g><!--link biblio to UC6--><g class="link" data-entity-1="ent0002" data-entity-2="ent0009" data-link-type="dependency" data-source-line="22" id="lnk16"><path d="M69.27,388.82 C82.53,410.49 101.46,436.22 124.4,453 C138.71,463.46 151.4209,469.5459 168.1809,475.0659" fill="none" id="biblio-to-UC6" style="stroke:#181818;stroke-width:1;"/><polygon fill="#181818" points="172.93,476.63,165.633,470.0153,168.1809,475.0659,163.1304,477.6138,172.93,476.63" style="stroke:#181818;stroke-width:1;stroke-linejoin:miter;stroke-miterlimit:10;"/></g><!--link biblio to UC7--><g class="link" data-entity-1="ent0002" data-entity-2="ent0010" data-link-type="dependency" data-source-line="23" id="lnk17"><path d="M88.58,368.02 C100.05,373.15 112.63,378.51 124.4,383 C144.81,390.77 162.9916,396.798 182.6316,402.848" fill="none" id="biblio-to-UC7" style="stroke:#181818;stroke-width:1;"/><polygon fill="#181818" points="187.41,404.32,179.9864,397.8477,182.6316,402.848,177.6313,405.4932,187.41,404.32" style="stroke:#181818;stroke-width:1;stroke-linejoin:miter;stroke-miterlimit:10;"/></g><!--link biblio to UC2--><g class="link" data-entity-1="ent0002" data-entity-2="ent0005" data-link-type="dependency" data-source-line="24" id="lnk18"><path d="M67.8,309.12 C80.95,286.03 100.28,258.06 124.4,240 C138.27,229.62 150.4883,223.6263 166.8983,218.1363" fill="none" id="biblio-to-UC2" style="stroke:#181818;stroke-width:1;"/><polygon fill="#181818" points="171.64,216.55,161.8359,215.6121,166.8983,218.1363,164.374,223.1988,171.64,216.55" style="stroke:#181818;stroke-width:1;stroke-linejoin:miter;stroke-miterlimit:10;"/></g><!--link biblio to UC4--><g class="link" data-entity-1="ent0002" data-entity-2="ent0007" data-link-type="dependency" data-source-line="25" id="lnk19"><path d="M88.66,330.17 C100.13,325.04 112.68,319.63 124.4,315 C143.66,307.39 160.3855,301.3975 179.2055,295.0075" fill="none" id="biblio-to-UC4" style="stroke:#181818;stroke-width:1;"/><polygon fill="#181818" points="183.94,293.4,174.1318,292.5059,179.2055,295.0075,176.7039,300.0812,183.94,293.4" style="stroke:#181818;stroke-width:1;stroke-linejoin:miter;stroke-miterlimit:10;"/></g><?plantuml-src RP31QiCm38RlUWgHUmzBq_OssDhHIs5Gw0EehfO9N7l8ZWyRU_SvJJFiiUCdVVn8l-MtYD6ZIlyUyIBA9eft06IYLsnEOI0Lto0570BhF7-MinKVsVnkpxS9m9X0hhTSIlZgh3Xky0jmp34KydxhNHXi9CKdmvgcdDFseNIEJ5O-i_9o_L0EKQwprjPQFYvbxI19PsDP6ywd_tAwwYIwK8Zw9sXL1_KoAJjEtWw6PcrTQdiUbIDRoeM93tTd0zy0OvEuM3pUdYsWBM5PGWSm5NpdLOth6ZSrjZLsy0C0?></g></svg>